<svg xmlns="http://www.w3.org/2000/svg" xmlns:xlink="http://www.w3.org/1999/xlink" version="1.1" x="0px" y="0px" viewBox="0 0 100 125" enable-background="new 0 0 100 100" xml:space="preserve"><path d="M48.3,69.3c0.6,0,2.6,0,3,0v-10c-0.4,0-2.4,0-3,0V69.3z"/><path d="M83.6,46.4l7.1,7.1c0.7-0.7,1.5-1.4,2.2-2.1l-7.1-7.1C85.1,45,84.4,45.7,83.6,46.4z"/><path d="M71.3,65.5c0.9-0.4,1.9-0.7,2.8-1.1l-3.8-9.3c-0.9,0.4-1.8,0.8-2.8,1.1L71.3,65.5z"/><path d="M14.2,44L7.1,51c0.7,0.7,1.4,1.4,2.1,2.1l7.1-7.1C15.6,45.4,14.9,44.7,14.2,44z"/><path d="M28.5,65.3l3.8-9.3c-0.9-0.4-1.9-0.7-2.8-1.2l-3.8,9.3C26.6,64.5,27.6,64.9,28.5,65.3z"/><path d="M89.1,32.1l-2.6-1.5C79,43.7,64.9,51.9,49.8,51.9s-29.1-8.1-36.7-21.2l-2.6,1.5c8.1,14,23.2,22.8,39.3,22.8  S81,46.2,89.1,32.1z"/></svg>