<svg version="1.1" id="Layer_1" xmlns="http://www.w3.org/2000/svg" xmlns:xlink="http://www.w3.org/1999/xlink" x="0px" y="0px"
	 width="100%" viewBox="0 0 491 296" enable-background="new 0 0 491 296" xml:space="preserve">
	<path fill="#010101" opacity="1.000000" stroke="none" 
		d="M316.000000,0.999999 
		C330.020905,1.000000 344.041779,1.000000 358.663086,1.363822 
		C360.708618,2.087259 362.141327,2.509461 363.600586,2.797377 
		C404.562195,10.879384 433.105072,44.961704 433.328583,86.674179 
		C433.557007,129.303848 433.523529,171.936371 433.334045,214.566437 
		C433.167999,251.921341 410.617645,283.095886 375.298370,295.510834 
		C374.461212,295.805084 373.763000,296.494751 373.000000,297.000000 
		C284.979095,297.000000 196.958206,297.000000 108.505417,296.633301 
		C106.464081,295.485626 104.896118,294.600830 103.239090,293.939026 
		C71.351807,281.203583 49.827816,250.752457 49.521938,216.397263 
		C49.131706,172.568359 49.049828,128.729172 49.536907,84.902206 
		C49.984425,44.635006 79.081055,10.671506 118.618637,2.891447 
		C120.464996,2.528127 122.208565,1.642419 124.000000,1.000000 
		C138.020889,1.000000 152.041794,1.000000 166.790710,1.335028 
		C168.503845,1.779347 169.488953,1.983919 170.474106,1.984251 
		C217.603256,2.000102 264.732422,2.006765 311.861542,1.956573 
		C313.241364,1.955103 314.620514,1.332823 316.000000,0.999999 M208.276718,156.201996 
		C221.786423,171.517624 241.282837,176.153931 258.881836,168.236023 
		C275.893433,160.582413 286.044220,142.709579 283.780334,124.396301 
		C281.540344,106.276367 268.669678,91.929222 250.923538,87.770363 
		C233.826370,83.763596 215.855301,90.914291 205.971146,105.656929 
		C195.739044,120.918518 196.454315,139.967575 208.276718,156.201996 
	z"/>
	<path fill="#FEFEFE" opacity="1.000000" stroke="none" 
		d="M373.468658,297.000000 
		C373.763000,296.494751 374.461212,295.805084 375.298370,295.510834 
		C410.617645,283.095886 433.167999,251.921341 433.334045,214.566437 
		C433.523529,171.936371 433.557007,129.303848 433.328583,86.674179 
		C433.105072,44.961704 404.562195,10.879384 363.600586,2.797377 
		C362.141327,2.509461 360.708618,2.087259 359.131775,1.363822 
		C403.297913,1.000000 447.595856,1.000000 491.946899,1.000000 
		C491.946899,99.552437 491.946899,198.104904 491.946899,297.000000 
		C452.646423,297.000000 413.291870,297.000000 373.468658,297.000000 z"/>
	<path fill="#FEFEFE" opacity="1.000000" stroke="none" 
		d="M123.531342,1.000000 
		C122.208565,1.642419 120.464996,2.528127 118.618637,2.891447 
		C79.081055,10.671506 49.984425,44.635006 49.536907,84.902206 
		C49.049828,128.729172 49.131706,172.568359 49.521938,216.397263 
		C49.827816,250.752457 71.351807,281.203583 103.239090,293.939026 
		C104.896118,294.600830 106.464081,295.485626 108.036758,296.633301 
		C72.363014,297.000000 36.726028,297.000000 1.044523,297.000000 
		C1.044523,198.445145 1.044523,99.890259 1.044523,1.000000 
		C41.686947,1.000000 82.374817,1.000000 123.531342,1.000000 z"/>
	<path fill="#5F5F5F" opacity="1.000000" stroke="none" 
		d="M315.531342,0.999999 
		C314.620514,1.332823 313.241364,1.955103 311.861542,1.956573 
		C264.732422,2.006765 217.603256,2.000102 170.474106,1.984251 
		C169.488953,1.983919 168.503845,1.779347 167.259369,1.335028 
		C216.354233,1.000000 265.708466,1.000000 315.531342,0.999999 z"/>
	<path fill="#FCFCFC" opacity="1.000000" stroke="none" 
		d="M208.062164,155.916412 
		C196.454315,139.967575 195.739044,120.918518 205.971146,105.656929 
		C215.855301,90.914291 233.826370,83.763596 250.923538,87.770363 
		C268.669678,91.929222 281.540344,106.276367 283.780334,124.396301 
		C286.044220,142.709579 275.893433,160.582413 258.881836,168.236023 
		C241.282837,176.153931 221.786423,171.517624 208.062164,155.916412 z"/>
</svg>